# xmcd
#
# Track frame offsets: 
#        150
#        14107
#        25525
#        40212
#        55970
#        70247
#        82682
#        98487
#        110012
#        118950
#        132065
#        144885
#        155905
#        170202
#        186015
#        199845
#        211532
#        224475
#        238872
#        249887
#        261605
#        275165
#        284510
#        295800
#
# Disc length: 4074 seconds
#
# Revision: 0
# Processed by: cddbd v1.5.2PL0 Copyright (c) Steve Scherf et al.
# Submitted via: ExactAudioCopyFreeDBPlugin 1.0
#
DISCID=720fe818
DTITLE=Various Artist - GoldDisc 1814
DYEAR=1900
DGENRE=Classic Country
TTITLE0=Tom T. Hall - A Week In A Country Jail
TTITLE1=Stonewall Jackson - Waterloo
TTITLE2=Charley Pride - Kaw-Liga
TTITLE3=Reba McEntire - That's All She Wrote
TTITLE4=Lefty Frizzell - Always Late (With Your Kisses)
TTITLE5=Buck Owens - Under Your Spell Again
TTITLE6=Chris LeDoux - Thank The Cowboy For The Ride
TTITLE7=Conway Twitty and Loretta Lynn - Louisiana Woman, Mississippi Ma
TTITLE7=n
TTITLE8=Don Gibson - Blue Blue Day
TTITLE9=Willie Nelson - Remember Me
TTITLE10=Marty Robbins - Tonight Carmen
TTITLE11=Barbara Mandrell - I'll Be Your Jukebox Tonight
TTITLE12=Dolly Parton - Joshua
TTITLE13=Merle Haggard - Hungry Eyes
TTITLE14=Anne Murray - Cotton Jenny
TTITLE15=Ray Price - Crazy Arms
TTITLE16=Bill Anderson - Still
TTITLE17=Lorrie Morgan - Tears On My Pillow
TTITLE18=Hank Locklin - Please Help Me I'm Falling
TTITLE19=Jean Shepard and Ferlin Husky - A Dear John Letter
TTITLE20=George Jones and Tammy Wynette - We're Gonna Hold On
TTITLE21=Webb Pierce - Honky Tonk Song
TTITLE22=The Statler Brothers - Bed Of Rose's
TTITLE23=Eddy Arnold - What's He Doing In My World
EXTD=
EXTT0=
EXTT1=
EXTT2=
EXTT3=
EXTT4=
EXTT5=
EXTT6=
EXTT7=
EXTT8=
EXTT9=
EXTT10=
EXTT11=
EXTT12=
EXTT13=
EXTT14=
EXTT15=
EXTT16=
EXTT17=
EXTT18=
EXTT19=
EXTT20=
EXTT21=
EXTT22=
EXTT23=
PLAYORDER=
